<?xml version="1.0" standalone="no"?><!DOCTYPE svg PUBLIC "-//W3C//DTD SVG 1.1//EN" "http://www.w3.org/Graphics/SVG/1.1/DTD/svg11.dtd"><svg t="1722786365423" class="icon" viewBox="0 0 1095 1024" version="1.1" xmlns="http://www.w3.org/2000/svg" p-id="76016" xmlns:xlink="http://www.w3.org/1999/xlink" width="213.8671875" height="200"><path d="M679.424 670.72V515.584c0-70.656-57.344-128-128-128h-291.84V239.616c0-59.392 48.128-108.032 107.52-108.032H870.4c59.392 0 107.52 48.128 107.52 108.032V563.2l0.512 199.68c0 11.776-9.216 21.504-20.992 21.504-5.632 0-11.264-2.048-15.36-6.144L835.584 670.72h-156.16z" fill="#0091EB" p-id="76017"></path><path d="M81.408 771.584V558.08c0-47.104 38.4-85.504 85.504-85.504h341.504c47.104 0 85.504 38.4 85.504 85.504v213.504c0 47.104-38.4 85.504-85.504 85.504H172.032l-53.248 50.688c-8.704 8.192-22.016 7.68-30.208-0.512-3.584-4.096-6.144-9.216-6.144-14.848V785.408c-0.512-4.608-1.024-9.216-1.024-13.824zM401.92 686.08c-11.776 0-21.504 9.728-21.504 21.504s9.728 21.504 21.504 21.504h85.504c11.776 0 21.504-9.728 21.504-21.504s-9.728-21.504-21.504-21.504H401.92z" fill="#BBE2FF" p-id="76018"></path><path d="M273.92 601.088c-11.776 0-21.504 9.728-21.504 21.504 0 11.776 9.728 21.504 21.504 21.504h213.504c11.776 0 21.504-9.728 21.504-21.504 0-11.776-9.728-21.504-21.504-21.504H273.92z" fill="#FFB541" p-id="76019"></path></svg>