<?xml version="1.0" standalone="no"?><!DOCTYPE svg PUBLIC "-//W3C//DTD SVG 1.1//EN" "http://www.w3.org/Graphics/SVG/1.1/DTD/svg11.dtd"><svg t="1722786203826" class="icon" viewBox="0 0 1024 1024" version="1.1" xmlns="http://www.w3.org/2000/svg" p-id="63130" xmlns:xlink="http://www.w3.org/1999/xlink" width="200" height="200"><path d="M457.54079 763.535517a148.961293 148.961293 0 0 1-29.182475 55.969375l-37.240324 43.555933a150.485751 150.485751 0 1 1-231.282007-191.428328l37.240323-44.644832a149.614632 149.614632 0 0 1 24.173543-23.084645l-2.613356-5.662271a273.749043 273.749043 0 1 1 251.535517 165.076988h-12.413441z m0 0" fill="#FD637B" p-id="63131"></path><path d="M275.041428 937.977031a168.561463 168.561463 0 0 1-108.889834-39.41812 170.303701 170.303701 0 0 1-21.777967-239.557635l37.240323-44.862612a168.343684 168.343684 0 0 1 15.462357-16.115695 293.566993 293.566993 0 1 1 274.837941 185.330498 168.125904 168.125904 0 0 1-28.311357 48.782645l-38.329221 44.862612a168.997023 168.997023 0 0 1-115.205445 60.542748h-15.244577z m194.695024-702.33943A254.148873 254.148873 0 0 0 236.494427 591.271799l8.928966 19.81795-12.413441 9.582305a129.143343 129.143343 0 0 0-21.777967 19.81795l-37.022543 43.555934A131.081582 131.081582 0 1 0 376.091194 851.300723l37.240323-43.555934a128.925564 128.925564 0 0 0 25.262442-48.347086l2.831136-15.244577h26.569119a254.039983 254.039983 0 0 0 0-508.079966z m0 0" fill="#3F285E" p-id="63132"></path><path d="M110.617779 746.548703l446.883879-18.511272 1.524458 38.98256-446.6661 18.511272z m36.151425 90.378562l255.67333-10.017865 1.524458 39.200341-255.673331 10.671203z m0 0" fill="#3F285E" p-id="63133"></path><path d="M203.827477 984.79966a82.756274 82.756274 0 0 1-124.569971-108.889834z m0 0" fill="#64A3FF" p-id="63134"></path><path d="M142.41361 1022.911102a92.556359 92.556359 0 0 1-70.778392-152.445768l6.53339-7.622288 139.814547 121.956614-6.75117 7.404508a92.774139 92.774139 0 0 1-68.818375 30.706934z m-61.631646-130.667801a72.956189 72.956189 0 0 0 108.889834 94.516376zM488.901062 161.810293a19.81795 19.81795 0 0 1-19.817949-19.817949V19.81795a19.81795 19.81795 0 0 1 39.41812 0v122.174394a19.81795 19.81795 0 0 1-19.81795 19.817949z m224.530838 75.351766a19.81795 19.81795 0 0 1-13.937898-33.755849l87.111867-87.111867a19.81795 19.81795 0 0 1 27.222458 28.529136l-87.111867 87.111868a19.81795 19.81795 0 0 1-13.937899 5.662271z m238.468737 182.499362h-138.290089a19.81795 19.81795 0 0 1 0-39.41812h138.290089a19.81795 19.81795 0 0 1 0 39.41812z m0 0" fill="#3F285E" p-id="63135"></path><path d="M388.069076 400.061251a46.16929 46.16929 0 1 0 23.084645-39.41812 46.16929 46.16929 0 0 0-23.084645 39.41812" fill="#FFFFFF" p-id="63136"></path></svg>